<svg xmlns="http://www.w3.org/2000/svg" viewBox="483.48 325.65 155.26 196.61"><path fill="#5c4b42" fill-rule="nonzero" d="M 620.667969,341.03125 C 621.90625,341.640625 622.78125,342.210938 623.390625,342.746094 C 623.277344,342.992188 623.164062,343.316406 623.011719,343.660156 C 623.375,343.410156 623.582031,343.144531 623.640625,342.914062 C 623.488281,342.34375 622.496094,341.695312 620.667969,341.03125 M 501.613281,341.011719 C 499.730469,341.695312 498.699219,342.363281 498.566406,342.933594 C 498.625,343.164062 498.832031,343.410156 499.195312,343.675781 C 499.042969,343.316406 498.929688,343.011719 498.8125,342.746094 C 499.425781,342.210938 500.320312,341.621094 501.613281,341.011719 M 627.085938,421.546875 C 625.542969,415.71875 624.097656,410.195312 623.21875,404.878906 C 620.382812,387.605469 619.375,375.773438 620.039062,367.640625 C 620.761719,358.574219 623.925781,349.335938 625.507812,345.203125 C 624.820312,345.867188 623.640625,346.628906 621.660156,347.390625 C 619.980469,352.289062 617.792969,359.832031 617.183594,367.410156 C 616.496094,375.773438 617.523438,387.832031 620.402344,405.335938 C 621.296875,410.804688 622.761719,416.386719 624.324219,422.292969 C 631.050781,447.757812 638.667969,476.636719 599.925781,505.4375 C 599.542969,505.667969 594.398438,508.945312 584.78125,511.152344 C 582.894531,511.589844 580.78125,511.992188 578.476562,512.332031 C 578.019531,512.410156 577.542969,512.464844 577.046875,512.523438 C 574.933594,512.773438 572.644531,512.945312 570.722656,513.078125 L 569.695312,513.132812 C 557.179688,513.839844 543.253906,513.039062 537.863281,511.265625 C 527.636719,508.960938 522.320312,505.457031 522.320312,505.457031 C 483.539062,476.65625 491.15625,447.777344 497.882812,422.292969 C 499.441406,416.386719 500.910156,410.804688 501.804688,405.335938 C 504.679688,387.8125 505.710938,375.773438 505.023438,367.410156 C 504.414062,359.832031 502.222656,352.289062 500.546875,347.390625 C 498.566406,346.628906 497.386719,345.867188 496.699219,345.203125 C 498.28125,349.335938 501.441406,358.574219 502.167969,367.640625 C 502.832031,375.753906 501.824219,387.585938 498.984375,404.878906 C 498.109375,410.195312 496.664062,415.71875 495.121094,421.566406 C 488.167969,447.910156 480.28125,477.796875 520.664062,507.78125 C 520.890625,507.933594 526.417969,511.628906 537.121094,514.007812 C 541.386719,515.417969 550.53125,516.257812 560.359375,516.257812 C 563.503906,516.257812 566.703125,516.164062 569.847656,515.992188 L 570.894531,515.933594 C 572.894531,515.800781 575.21875,515.609375 577.371094,515.363281 C 577.921875,515.285156 578.4375,515.230469 578.914062,515.152344 C 581.273438,514.808594 583.464844,514.390625 585.429688,513.933594 C 595.941406,511.515625 601.316406,507.933594 601.542969,507.78125 L 601.601562,507.742188 C 641.925781,477.796875 634.039062,447.910156 627.085938,421.546875 M 620.667969,341.03125 C 621.90625,341.640625 622.78125,342.210938 623.390625,342.746094 C 623.277344,342.992188 623.164062,343.316406 623.011719,343.660156 C 623.375,343.410156 623.582031,343.144531 623.640625,342.914062 C 623.488281,342.34375 622.496094,341.695312 620.667969,341.03125 M 501.613281,341.011719 C 499.730469,341.695312 498.699219,342.363281 498.566406,342.933594 C 498.625,343.164062 498.832031,343.410156 499.195312,343.675781 C 499.042969,343.316406 498.929688,343.011719 498.8125,342.746094 C 499.425781,342.210938 500.320312,341.621094 501.613281,341.011719"/><path fill="#ffe000" fill-rule="nonzero" d="M 623.640625,342.914062 C 623.582031,343.144531 623.371094,343.410156 623.011719,343.660156 C 619.164062,346.496094 598.058594,350.628906 561.105469,350.628906 C 524.109375,350.628906 503.003906,346.496094 499.195312,343.675781 C 498.832031,343.410156 498.625,343.164062 498.566406,342.933594 C 498.699219,342.363281 499.730469,341.695312 501.613281,341.011719 C 501.632812,340.992188 501.632812,340.992188 501.652344,340.992188 C 508.949219,338.324219 529.0625,335.21875 561.105469,335.21875 C 593.292969,335.21875 613.46875,338.363281 620.667969,341.03125 C 622.496094,341.695312 623.488281,342.34375 623.640625,342.914062"/><path fill="#5c4b42" fill-rule="nonzero" d="M 622.933594,338.992188 C 624.34375,339.773438 625.410156,340.589844 626.171875,341.503906 C 625.8125,340.800781 624.914062,339.925781 622.933594,338.992188"/><path fill="#5c4b42" fill-rule="nonzero" d="M 623.011719,343.660156 C 619.164062,346.496094 598.058594,350.628906 561.101562,350.628906 C 524.109375,350.628906 503.003906,346.496094 499.195312,343.675781 C 498.832031,343.410156 498.625,343.164062 498.566406,342.933594 C 498.699219,342.363281 499.730469,341.695312 501.613281,341.011719 C 501.632812,340.992188 501.632812,340.992188 501.652344,340.992188 C 508.949219,338.324219 529.0625,335.21875 561.101562,335.21875 C 593.296875,335.21875 613.46875,338.363281 620.667969,341.03125 C 622.496094,341.695312 623.488281,342.34375 623.640625,342.914062 C 623.582031,343.144531 623.375,343.410156 623.011719,343.660156 M 626.210938,341.5625 C 626.210938,341.542969 626.191406,341.523438 626.171875,341.503906 C 625.410156,340.589844 624.34375,339.773438 622.933594,338.992188 C 622.898438,338.972656 622.839844,338.933594 622.78125,338.914062 C 619.050781,336.898438 613.066406,335.316406 604.722656,334.152344 L 604.515625,334.117188 C 592.363281,331.847656 570.398438,331.085938 545.710938,332.078125 C 544.777344,332.09375 543.84375,332.132812 542.949219,332.171875 C 533.691406,332.589844 525.195312,333.21875 519.042969,333.960938 L 517.613281,334.132812 C 515.578125,334.417969 513.613281,334.742188 511.75,335.085938 L 511.308594,335.164062 L 511.308594,335.179688 C 505.996094,336.210938 502.015625,337.46875 499.269531,338.992188 C 499.15625,339.046875 499.042969,339.085938 498.949219,339.164062 C 497.195312,340.019531 496.375,340.839844 496.03125,341.503906 C 496.015625,341.523438 495.996094,341.542969 495.996094,341.5625 C 495.746094,342.039062 495.710938,342.441406 495.710938,342.746094 L 495.824219,342.992188 C 495.84375,343.011719 496.183594,343.8125 496.699219,345.183594 L 496.699219,345.203125 C 497.386719,345.867188 498.566406,346.628906 500.546875,347.390625 C 503.460938,348.535156 508.148438,349.714844 515.671875,350.800781 C 527.824219,352.535156 543.960938,353.488281 561.101562,353.488281 C 578.246094,353.488281 594.382812,352.535156 606.535156,350.800781 C 614.058594,349.714844 618.746094,348.535156 621.660156,347.390625 C 623.640625,346.628906 624.820312,345.867188 625.507812,345.203125 L 625.507812,345.183594 C 626.019531,343.8125 626.363281,343.011719 626.382812,342.992188 L 626.496094,342.746094 C 626.496094,342.441406 626.460938,342.039062 626.210938,341.5625"/></svg>