<svg xmlns="http://www.w3.org/2000/svg" viewBox="724.20 317.76 153.21 207.13"><path fill="#000000" fill-rule="nonzero" d="M 794.351562,327.332031 C 791.25,327.445312 788.085938,327.617188 784.886719,327.882812 C 788.542969,327.578125 791.800781,327.40625 794.351562,327.332031"/><path fill="#ffe000" fill-rule="nonzero" d="M 866.414062,353.457031 C 866.414062,368.992188 837.027344,381.589844 800.773438,381.589844 C 764.523438,381.589844 735.132812,368.992188 735.132812,353.457031 C 735.132812,337.917969 764.523438,325.324219 800.773438,325.324219 C 837.027344,325.324219 866.414062,337.917969 866.414062,353.457031"/><path fill="#5c4b42" fill-rule="nonzero" d="M 865.84375,476.195312 C 853.898438,505.246094 817.269531,520.960938 786.542969,514.691406 L 786.164062,514.617188 C 764.351562,510.007812 744.710938,496.785156 736.179688,477.28125 C 732.617188,469.433594 732.671875,461.03125 733.359375,452.539062 C 735.550781,425.183594 745.644531,401.183594 742.234375,374.609375 C 741.96875,371.695312 741.359375,369.140625 740.636719,366.742188 C 745.78125,371.410156 753.113281,375.027344 760.199219,377.160156 C 772.449219,381.21875 786.980469,383.007812 800.503906,383.027344 L 801.039062,383.027344 C 815.859375,383.027344 832.183594,380.820312 845.195312,375.789062 C 850.945312,373.789062 856.679688,370.628906 860.945312,366.703125 C 860.605469,367.867188 860.28125,369.085938 860.03125,370.34375 C 858.507812,378.039062 858.375,386.742188 859.003906,395.085938 C 860.8125,420.667969 874.183594,453.089844 865.84375,476.195312 M 738.121094,359.085938 C 731.128906,346.1875 748.980469,336.167969 762.867188,332.035156 C 773.515625,328.722656 787.019531,326.757812 800.523438,326.742188 L 801.039062,326.742188 C 815.574219,326.757812 830.050781,329.027344 841.078125,332.816406 C 854.128906,336.855469 870.148438,347.140625 863.328125,359.332031 C 862.585938,360.644531 861.59375,361.980469 860.300781,363.332031 C 858.03125,365.410156 855.382812,367.277344 852.433594,368.972656 C 836.925781,358.226562 818.011719,355.921875 800.03125,355.921875 C 784.140625,355.921875 762.734375,359.351562 748.351562,368.515625 C 745.796875,367.007812 743.472656,365.351562 741.457031,363.542969 C 740.007812,362.019531 738.902344,360.53125 738.121094,359.085938 M 871.0625,452.480469 C 869.917969,437.925781 865.824219,420.515625 863.289062,406.132812 C 861.5,396.171875 860.8125,383.714844 862.335938,373.65625 C 863.117188,367.617188 864.8125,364.246094 866.089844,360.171875 C 868.851562,354.835938 868.640625,348.742188 863.25,342.472656 C 839.363281,317.5 762.121094,317.539062 738.292969,342.472656 C 732.976562,348.914062 732.710938,354.933594 735.398438,360.171875 C 736.671875,364.039062 738.578125,368.019531 739.113281,373.007812 C 740.789062,383.636719 740.101562,395.808594 738.273438,406.132812 C 735.359375,426.078125 726.347656,452.957031 732.046875,474.40625 C 740.539062,499.796875 768.027344,516.617188 794.808594,518.636719 L 795.152344,518.671875 C 825.460938,521.015625 859.15625,504.042969 869.480469,474.59375 C 871.765625,467.335938 871.613281,460.460938 871.0625,452.480469"/><path fill="#ffe000" fill-rule="nonzero" d="M 801.71875,379.667969 C 778.78125,379.667969 764.160156,375.710938 755.9375,372.394531 C 745.066406,368.003906 738.835938,362 738.835938,355.921875 L 741.011719,355.921875 C 741.011719,366.292969 764.222656,377.492188 801.71875,377.492188 C 822.363281,377.492188 836.015625,373.898438 843.835938,370.878906 C 852.941406,367.371094 859.246094,362.632812 860.699219,358.210938 L 862.765625,358.890625 C 859.460938,368.960938 836.9375,379.667969 801.71875,379.667969"/></svg>